<?xml version="1.0" encoding="utf-8"?>
<!-- Generator: Adobe Illustrator 16.0.0, SVG Export Plug-In . SVG Version: 6.00 Build 0)  -->
<!DOCTYPE svg PUBLIC "-//W3C//DTD SVG 1.1//EN" "http://www.w3.org/Graphics/SVG/1.1/DTD/svg11.dtd">
<svg version="1.1" id="Layer_1" xmlns="http://www.w3.org/2000/svg" xmlns:xlink="http://www.w3.org/1999/xlink" x="0px" y="0px"
	 width="360px" height="195.499px" viewBox="0 0 360 195.499" enable-background="new 0 0 360 195.499" xml:space="preserve">
<g>
	<g>
		<g enable-background="new    ">
			<path d="M208.993,153.543l-0.055,2.842c0,13.002,2.378,18.447,14.319,18.447c7.864,0,10.297-0.916,12.182-4.625
				c1.695-3.314,2.153-8.213,2.522-15.126c0-0.015,0-1.292,0-1.292c0-10.181,0.102-13.542-0.807-17.196
				c-0.998-3.949-2.829-8.131-6.442-11.752c-1.442-1.435-2.734-2.624-3.826-3.724c-8.403-8.396-7.271-9.408-7.271-22.088
				c0-6.447,0.268-7.16,3.13-7.16c1.646,0,2.029,1.616,2.029,4.803v13.835v0.232H225l10.878-0.055h0.225v-0.219V97.922
				c0-12.106-2.534-18.139-13.91-18.139c-12.837,0-14.047,5.855-14.047,21.685c0,17.717,1.824,19.608,8.321,26.099
				c1.395,1.401,3.048,2.896,4.817,4.933c5.171,5.952,4.611,5.842,5.041,15.947c0.09,2.48-0.095,4.153-0.238,8.854
				c-0.205,6.121-0.355,6.388-2.712,6.388c-1.954,0-2.665-0.731-2.665-4.447l-0.014-17.703l-11.472-0.041L208.993,153.543z"/>
		</g>
		<polygon points="127.297,173.957 157.048,151.657 187.185,173.909 175.549,138.198 205.29,115.618 168.174,115.618 
			157.308,80.767 145.925,115.577 108.799,115.577 139.199,138.013 		"/>
		<path d="M58.156,174.23L47.548,80.442l-0.479-0.195h-0.187H34.403h-0.198l-0.485,0.185l-12.807,93.793l0.423,0.252h0.256H32.48
			h0.185l0.02-0.185l2.111-15.728h9.794l1.984,15.707l0.035,0.205h0.205h10.689h0.229L58.156,174.23z M35.377,147.134l3.884-36.504
			h0.947l3.587,36.504H35.377z"/>
		<polygon points="87.025,174.47 87.025,162.588 74.068,162.588 74.068,80.473 72.274,80.25 72.042,80.25 61.503,80.25 
			61.278,80.25 61.278,80.473 61.278,174.47 		"/>
		<polygon points="116.263,174.47 116.263,162.588 102.855,162.588 102.855,80.473 101.512,80.25 101.284,80.25 90.734,80.25 
			90.513,80.25 90.513,80.473 90.513,174.47 		"/>
		<g>
			<path d="M303.762,174.143l-10.604-93.786l-0.479-0.188h-0.198h-12.489h-0.184l-0.479,0.188l-12.809,93.786l0.415,0.252h0.253
				h10.892h0.198l0.026-0.198l2.099-15.72h9.782l2.003,15.72l0.021,0.198h0.198h10.685h0.253L303.762,174.143z M280.99,147.059
				l3.881-36.497h0.929l3.614,36.497H280.99z"/>
		</g>
		<g>
			<g enable-background="new    ">
				<path d="M260.501,174.408V92.48l9.763-0.034l0.007-12.278l-32.186-0.017l-0.021,12.329l10.181-0.024l-0.083,81.952H260.501z"/>
			</g>
		</g>
		<g>
			<g>
				<path d="M338.504,174.354c-1.626-4.358-0.902-30.758-0.902-30.758c0-10.856-4.729-14.021-8.451-15.407
					c3.102-0.868,8.908-2.91,8.908-15.762v-12.038c0-6.535-1.01-11.3-3.046-14.573c-2.386-3.799-6.614-5.637-11.984-5.637h-15.153
					h-0.232l-0.451,0.669v93.54h11.43v-40.269h1.941c3.401,0,5.602,2.691,5.602,6.853c0,0.007-0.867,32.261,0.896,33.376
					C328.146,174.348,338.504,174.354,338.504,174.354z M326.813,117.216c0,4.243-3.006,4.673-7.98,4.803V92.272h2.658
					c2.576,0,5.322,1.271,5.322,4.803V117.216z"/>
			</g>
		</g>
	</g>
	<g>
		<rect x="231.245" y="23.862" width="11.273" height="5.756"/>
		<polygon points="81.989,48.525 91.698,41.44 101.444,48.481 97.693,37.075 107.323,30.167 95.459,30.188 91.64,18.583 
			87.92,30.167 75.926,30.167 85.672,37.099 		"/>
		<path d="M355.434,0H0v195.499h359.328V0H355.434z M291.026,23.359c0-4.663,3.854-8.435,8.637-8.435h21.65v8.937h-20.489v5.766
			h20.428v9.217h-20.428v5.517h20.489l-0.021,9.216h-21.63c-4.783,0-8.637-3.768-8.637-8.434V23.359z M256.312,30.906v-7.998
			c0.232-4.468,4.093-7.942,8.793-7.942h21.084v8.958h-19.718v5.78h12.127c4.707,0,8.567,3.604,8.772,8.263v7.02
			c-0.075,4.81-4.065,8.714-8.772,8.714h-21.445v-9.281h19.997v-5.521h-12.045C255.643,38.899,256.312,30.906,256.312,30.906z
			 M221.639,40.34V23.11v-8.103h22.007c4.626,0,8.383,3.536,8.608,7.987v7.583c-0.185,4.366-3.108,7.324-6.913,8.062l8.116,15.024
			h-9.552l-7.844-14.819h-4.816v14.819h-9.606V40.34z M187.848,23.359c0-4.663,3.88-8.435,8.635-8.435h20.237l-0.013,8.937h-19.11
			v5.766h19.068v9.217h-19.068v5.534h19.11l-0.021,9.261h-20.203c-4.755,0-8.635-3.768-8.635-8.441V23.359z M159.142,15.007
			l8.206,28.299h0.089l8.113-28.299h10.829l-12.602,38.656h-12.937l-12.435-38.656H159.142z M116.291,15h21.986
			c4.636,0,8.41,3.546,8.653,8v30.663h-9.948V23.862h-10.873v29.801h-9.818V15z M72.376,23.41c0-4.693,3.7-8.499,8.271-8.499h22.249
			c4.581,0,8.287,3.806,8.287,8.499l0.027,21.72c0,4.687-3.713,8.492-8.294,8.492l-22.263,0.014c-4.564,0-8.277-3.806-8.277-8.493
			V23.41z M38.021,23.376c0-4.66,3.857-8.431,8.629-8.431l21.354-0.014l-0.006,8.93l-20.073,0.013v20.486h20.073l0.006,9.278
			L46.65,53.66c-4.772,0-8.629-3.768-8.629-8.431V23.376z M351.525,187.71H7.806V67.522h343.72V187.71z"/>
	</g>
</g>
</svg>
