<?xml version="1.0" encoding="utf-8"?>
<!-- Generator: Adobe Illustrator 15.0.2, SVG Export Plug-In  -->
<!DOCTYPE svg PUBLIC "-//W3C//DTD SVG 1.1//EN" "http://www.w3.org/Graphics/SVG/1.1/DTD/svg11.dtd" [
	<!ENTITY ns_flows "http://ns.adobe.com/Flows/1.0/">
]>
<svg version="1.1"
	 xmlns="http://www.w3.org/2000/svg" xmlns:xlink="http://www.w3.org/1999/xlink" xmlns:a="http://ns.adobe.com/AdobeSVGViewerExtensions/3.0/"
	 x="0px" y="0px" width="533px" height="532px" viewBox="-0.764 -0.419 533 532"
	 overflow="visible" enable-background="new -0.764 -0.419 533 532" xml:space="preserve">
<defs>
</defs>
<path fill="#009900" d="M402.397,0H129.009C57.874,0,0,57.89,0,129.045v273.314c0,71.166,57.874,129.064,129.009,129.064h273.388
	c71.135,0,129.008-57.898,129.008-129.064V129.045C531.405,57.89,473.532,0,402.397,0z"/>
<path fill="#FFFFFF" d="M88.646,80.875c-60.008,60.008-60.008,157.301,0,217.31c44.272,44.271,108.823,55.84,163.74,34.786
	c11.85-3.667,26.009-6.035,35.646,3.601c0.928,0.93,1.788,1.541,2.593,1.933l128.025,119.749
	c12.907,12.906,29.504,17.236,42.413,4.328l9.57-9.57c12.904-12.906,9.298-30.223-3.61-43.134L349.975,286.568
	c-0.26-0.688-0.825-1.502-1.784-2.459c-10.998-11.002-9.57-34.22-5.376-45.221c0.017-0.042,0.018-0.087,0.038-0.127
	c18.087-53.599,5.812-115.178-36.897-157.886C245.948,20.866,148.654,20.866,88.646,80.875z M270.398,262.265
	c-40.17,40.172-105.302,40.174-145.474,0c-40.17-40.17-40.17-105.3,0-145.471c40.175-40.174,105.304-40.17,145.474,0
	C310.569,156.965,310.57,222.094,270.398,262.265z"/>
</svg>
